<?xml version="1.0" encoding="utf-8"?>
<!-- Generator: Adobe Illustrator 27.4.1, SVG Export Plug-In . SVG Version: 6.00 Build 0)  -->
<svg version="1.1" id="Layer_1" xmlns="http://www.w3.org/2000/svg" xmlns:xlink="http://www.w3.org/1999/xlink" x="0px" y="0px"
	 viewBox="0 0 178 175" style="enable-background:new 0 0 178 175;" xml:space="preserve">
<style type="text/css">
	.st0{fill:#FFFFFF;}
	.st1{fill:none;stroke:#1A1A1A;stroke-width:0.75;stroke-miterlimit:10;}
	.st2{fill:#102B01;}
	.st3{fill:#35AFD4;}
</style>
<circle class="st0" cx="89.5" cy="87.5" r="87"/>
<g>
	<line class="st1" x1="109.2" y1="37.2" x2="66.2" y2="69.2"/>
	<polygon class="st2" points="57.8,34.8 32.8,52.8 38.8,59.8 37.8,53.8 57.8,39.1 57.8,49.8 32.8,67.8 38.8,74.8 37.8,68.8 
		57.8,54.1 57.8,64.8 32.8,82.8 38.8,89.8 37.8,83.8 57.8,69.1 57.8,94.8 32.8,112.8 38.8,119.8 37.8,113.8 57.8,99.1 57.8,111.8 
		81.8,87.8 81.8,50.6 	"/>
	<polygon class="st2" points="39.8,135.8 96.4,77.2 152.8,132.8 135.8,132.8 135.8,126.8 96.2,89 57.2,127.3 57.2,135.8 	"/>
	<rect x="84.8" y="118.8" class="st3" width="10" height="10"/>
	<rect x="96.8" y="118.8" class="st3" width="10" height="10"/>
	<path class="st3" d="M106.8,116.8h-10v-9h2c4.4,0,8,3.6,8,8V116.8z"/>
	<path class="st3" d="M84.8,116.8h10v-9h-2c-4.4,0-8,3.6-8,8V116.8z"/>
	<polygon class="st2" points="84.8,65.2 84.8,58.2 98.8,46.8 126.8,63.8 126.8,100.2 99.4,73.5 98.8,54.8 	"/>
	<line class="st1" x1="42.8" y1="21.8" x2="89.8" y2="51.8"/>
	<line class="st1" x1="69.2" y1="21.2" x2="26.2" y2="53.2"/>
	<line class="st1" x1="85.8" y1="35.8" x2="138.2" y2="69.2"/>
	<line class="st1" x1="128.2" y1="53.2" x2="128.2" y2="104.2"/>
</g>
</svg>
